<?xml version="1.0" encoding="UTF-8" standalone="no"?>
<!-- Created with Inkscape (http://www.inkscape.org/) -->

<svg
   xmlns:dc="http://purl.org/dc/elements/1.1/"
   xmlns:cc="http://creativecommons.org/ns#"
   xmlns:rdf="http://www.w3.org/1999/02/22-rdf-syntax-ns#"
   xmlns:svg="http://www.w3.org/2000/svg"
   xmlns="http://www.w3.org/2000/svg"
   xmlns:sodipodi="http://sodipodi.sourceforge.net/DTD/sodipodi-0.dtd"
   xmlns:inkscape="http://www.inkscape.org/namespaces/inkscape"
   width="1114.0934"
   height="1119.5665"
   id="svg2"
   version="1.1"
   inkscape:version="0.48.4 r9939"
   sodipodi:docname="New document 1">
  <defs
     id="defs4" />
  <sodipodi:namedview
     id="base"
     pagecolor="#ffffff"
     bordercolor="#666666"
     borderopacity="1.0"
     inkscape:pageopacity="0.0"
     inkscape:pageshadow="2"
     inkscape:zoom="0.35"
     inkscape:cx="-68.408479"
     inkscape:cy="814.36813"
     inkscape:document-units="px"
     inkscape:current-layer="layer1"
     showgrid="false"
     fit-margin-top="0"
     fit-margin-left="0"
     fit-margin-right="0"
     fit-margin-bottom="0"
     inkscape:window-width="1600"
     inkscape:window-height="829"
     inkscape:window-x="-8"
     inkscape:window-y="-4"
     inkscape:window-maximized="1" />
  <metadata
     id="metadata7">
    <rdf:RDF>
      <cc:Work
         rdf:about="">
        <dc:format>image/svg+xml</dc:format>
        <dc:type
           rdf:resource="http://purl.org/dc/dcmitype/StillImage" />
        <dc:title></dc:title>
      </cc:Work>
    </rdf:RDF>
  </metadata>
  <g
     inkscape:label="Layer 1"
     inkscape:groupmode="layer"
     id="layer1"
     transform="translate(138.286,118.34882)">
    <path
       style="fill:#9a99ff;fill-opacity:1;fill-rule:nonzero;stroke:none"
       d="m -49.723214,-118.34853 c -48.91665,0 -88.562506,39.646166 -88.562506,88.562815 l -2.8e-4,85.969181 198.75,0 2.86e-4,-82.09418 c 0,-29.981181 24.33133,-54.280816 54.312504,-54.280816 l 196.7495,-2.87e-4 0,-38.157003 z"
       id="path2987"
       inkscape:connector-curvature="0"
       sodipodi:nodetypes="ccccccccc" />
    <path
       style="fill:#fe9900;fill-opacity:1;fill-rule:nonzero;stroke:none"
       d="m 320.21835,-118.34882 598.01032,0 0,38.157003 -598.01032,0 z"
       id="rect7159"
       inkscape:connector-curvature="0"
       sodipodi:nodetypes="ccccc" />
    <path
       transform="matrix(1,0,0,0.99403958,0,-0.47694603)"
       style="fill:#fe9900;fill-opacity:1;fill-rule:nonzero;stroke:none"
       d="m 975.80734,-99.211716 c 0,10.599945 -8.59295,19.192899 -19.1929,19.192899 l -32.07244,0 0,-38.385793 32.07244,0 c 10.59995,0 19.1929,8.59295 19.1929,19.192894 z"
       id="path7161"
       inkscape:connector-curvature="0"
       sodipodi:nodetypes="sccccs" />
    <path
       style="fill:#9a99ff;fill-opacity:1;fill-rule:nonzero;stroke:none"
       d="m -138.286,65.219322 198.75,0 0,137.857148 -198.75,0 z"
       id="rect7165"
       inkscape:connector-curvature="0"
       sodipodi:nodetypes="ccccc" />
    <path
       style="fill:#9a99ff;fill-opacity:1;fill-rule:nonzero;stroke:none"
       d="m -138.286,211.21932 198.749999,0 0,37.85715 -198.749999,0 z"
       id="rect7165-2"
       inkscape:connector-curvature="0"
       sodipodi:nodetypes="ccccc" />
    <path
       style="fill:#cb99cc;fill-opacity:1;fill-rule:nonzero;stroke:none"
       d="m -138.286,304.1644 198.749999,0 0,37.85715 -198.749999,0 z"
       id="rect7165-2-7"
       inkscape:connector-curvature="0"
       sodipodi:nodetypes="ccccc" />
    <path
       style="fill:#cb99cc;fill-opacity:1;fill-rule:nonzero;stroke:none"
       d="m -138.286,349.77017 198.749999,0 0,37.85715 -198.749999,0 z"
       id="rect7165-2-7-0"
       inkscape:connector-curvature="0"
       sodipodi:nodetypes="ccccc" />
    <path
       style="fill:#cb99cc;fill-opacity:1;fill-rule:nonzero;stroke:none"
       d="m -138.286,395.37594 198.749999,0 0,37.85715 -198.749999,0 z"
       id="rect7165-2-7-5"
       inkscape:connector-curvature="0"
       sodipodi:nodetypes="ccccc" />
    <path
       style="fill:#cb99cc;fill-opacity:1;fill-rule:nonzero;stroke:none"
       d="m -138.286,440.98169 198.749999,0 0,137.85715 -198.749999,0 z"
       id="rect7165-9"
       inkscape:connector-curvature="0"
       sodipodi:nodetypes="ccccc" />
    <path
       style="fill:#cc6698;fill-opacity:1;fill-rule:nonzero;stroke:none"
       d="m -49.72321,1001.2174 c -48.91665,0 -88.56251,-39.64618 -88.56251,-88.56283 l -2.8e-4,-85.96918 198.750005,0 2.9e-4,82.09418 c 0,29.98118 24.33133,54.28082 54.312505,54.28082 l 196.74949,2.9e-4 0,38.15702 z"
       id="path2987-1"
       inkscape:connector-curvature="0"
       sodipodi:nodetypes="ccccccccc" />
    <path
       style="fill:#cc6698;fill-opacity:1;fill-rule:nonzero;stroke:none"
       d="m -138.286,817.64954 198.750005,0 0,-137.85715 -198.750005,0 z"
       id="rect7165-5"
       inkscape:connector-curvature="0"
       sodipodi:nodetypes="ccccc" />
    <path
       style="fill:#cc6698;fill-opacity:1;fill-rule:nonzero;stroke:none"
       d="m -138.286,671.64954 198.750005,0 0,-37.85715 -198.750005,0 z"
       id="rect7165-2-3"
       inkscape:connector-curvature="0"
       sodipodi:nodetypes="ccccc" />
  </g>
</svg>
